<svg xmlns="http://www.w3.org/2000/svg" viewBox="0 0 720 200">
  <defs>
    <linearGradient id="bg" x1="0%" y1="0%" x2="100%" y2="100%">
      <stop offset="0%" style="stop-color:#0f172a"/>
      <stop offset="100%" style="stop-color:#1e293b"/>
    </linearGradient>
    <linearGradient id="shield" x1="0%" y1="0%" x2="100%" y2="100%">
      <stop offset="0%" style="stop-color:#3b82f6"/>
      <stop offset="100%" style="stop-color:#8b5cf6"/>
    </linearGradient>
    <linearGradient id="lock" x1="0%" y1="0%" x2="0%" y2="100%">
      <stop offset="0%" style="stop-color:#60a5fa"/>
      <stop offset="100%" style="stop-color:#a78bfa"/>
    </linearGradient>
  </defs>

  <!-- Background -->
  <rect width="720" height="200" rx="16" fill="url(#bg)"/>

  <!-- Shield icon -->
  <g transform="translate(40, 30)">
    <!-- Shield body -->
    <path d="M70 10 L130 30 L130 80 C130 115 100 138 70 148 C40 138 10 115 10 80 L10 30 Z"
          fill="url(#shield)" opacity="0.9"/>
    <!-- Lock body -->
    <rect x="48" y="72" width="44" height="34" rx="6" fill="url(#lock)"/>
    <!-- Lock shackle -->
    <path d="M56 72 L56 58 C56 46 64 38 70 38 C76 38 84 46 84 58 L84 72"
          fill="none" stroke="url(#lock)" stroke-width="5" stroke-linecap="round"/>
    <!-- Lock keyhole -->
    <circle cx="70" cy="86" r="5" fill="#0f172a"/>
    <rect x="68" y="88" width="4" height="8" rx="1" fill="#0f172a"/>
    <!-- Chip lines on shield -->
    <line x1="30" y1="50" x2="50" y2="50" stroke="#60a5fa" stroke-width="1.5" opacity="0.4"/>
    <line x1="90" y1="50" x2="110" y2="50" stroke="#60a5fa" stroke-width="1.5" opacity="0.4"/>
    <line x1="30" y1="58" x2="45" y2="58" stroke="#60a5fa" stroke-width="1.5" opacity="0.3"/>
    <line x1="95" y1="58" x2="110" y2="58" stroke="#60a5fa" stroke-width="1.5" opacity="0.3"/>
    <line x1="30" y1="110" x2="48" y2="110" stroke="#a78bfa" stroke-width="1.5" opacity="0.3"/>
    <line x1="92" y1="110" x2="110" y2="110" stroke="#a78bfa" stroke-width="1.5" opacity="0.3"/>
    <line x1="35" y1="118" x2="48" y2="118" stroke="#a78bfa" stroke-width="1.5" opacity="0.2"/>
    <line x1="92" y1="118" x2="105" y2="118" stroke="#a78bfa" stroke-width="1.5" opacity="0.2"/>
  </g>

  <!-- Text -->
  <text x="200" y="95" font-family="system-ui, -apple-system, 'Segoe UI', sans-serif" font-size="64" font-weight="700" fill="#f8fafc" letter-spacing="-1">
    tdxvm
  </text>
  <text x="430" y="95" font-family="system-ui, -apple-system, 'Segoe UI', sans-serif" font-size="64" font-weight="300" fill="#94a3b8" letter-spacing="-1">
    -sdk
  </text>

  <!-- Tagline -->
  <text x="200" y="132" font-family="ui-monospace, 'SF Mono', Menlo, monospace" font-size="16" fill="#64748b" letter-spacing="0.5">
    Declarative TDX VM images — build, measure, deploy
  </text>

  <!-- Version pill -->
  <rect x="200" y="148" width="72" height="24" rx="12" fill="#3b82f6" opacity="0.15"/>
  <text x="236" y="165" font-family="ui-monospace, 'SF Mono', Menlo, monospace" font-size="12" fill="#60a5fa" text-anchor="middle">
    mkosi v26
  </text>

  <rect x="282" y="148" width="64" height="24" rx="12" fill="#8b5cf6" opacity="0.15"/>
  <text x="314" y="165" font-family="ui-monospace, 'SF Mono', Menlo, monospace" font-size="12" fill="#a78bfa" text-anchor="middle">
    Python
  </text>

  <rect x="356" y="148" width="96" height="24" rx="12" fill="#10b981" opacity="0.15"/>
  <text x="404" y="165" font-family="ui-monospace, 'SF Mono', Menlo, monospace" font-size="12" fill="#34d399" text-anchor="middle">
    Intel TDX
  </text>
</svg>
